<svg xmlns="http://www.w3.org/2000/svg" viewBox="0 0 555.22 397.99"><defs><style>.cls-1{opacity:0.6;}.cls-2{fill:#f06b35;}</style></defs><g id="Layer_2" data-name="Layer 2"><g id="Layer_1-2" data-name="Layer 1"><g class="cls-1"><rect class="cls-2" x="372.74" y="273.67" width="97.63" height="50.33" transform="translate(720.4 -122.72) rotate(90)"/><rect class="cls-2" x="447.17" y="199.9" width="100.39" height="50.33"/><rect class="cls-2" x="52.77" width="156.3" height="50.33"/><rect class="cls-2" x="52.77" y="99.47" width="102.92" height="50.33"/><rect class="cls-2" x="195.72" y="250.02" width="102.92" height="50.33"/><rect class="cls-2" x="208.94" y="149.17" width="89.7" height="50.33"/><rect class="cls-2" x="208.65" y="347.65" width="148.1" height="50.33"/><rect class="cls-2" x="109.54" y="248.68" width="148.72" height="50.33" transform="translate(457.75 89.94) rotate(90)"/><rect class="cls-2" x="298.05" y="199.9" width="50.68" height="50.33" transform="translate(548.46 -98.32) rotate(90)"/><rect class="cls-2" x="-122.29" y="172.62" width="297.32" height="52.74" transform="translate(-172.62 225.36) rotate(-90)"/></g><g class="cls-1"><path class="cls-2" d="M395.28,45.76q4.32,4.4,4.32,12.71a34.33,34.33,0,0,1-.49,5.71,53.11,53.11,0,0,1-7.58,20.46A49.33,49.33,0,0,1,377,99.88q-8.55,5.72-17.36,5.71-2.61,0-6.52-.33l-5.22,29.18a47,47,0,0,0-.65,4.73,4.63,4.63,0,0,0,1.14,3.51,5.45,5.45,0,0,0,3.75,1.06q.81,0,3.42-.33c.44,0,.74.27.9.82s0,.86-.41,1l-31,5.06c-.33.1-.57-.17-.74-.82s0-1,.41-1.14a14.38,14.38,0,0,0,4.73-1.87,6.75,6.75,0,0,0,2.28-3.35,53.66,53.66,0,0,0,1.79-7.49l14-78.09A90.54,90.54,0,0,0,339.28,63a.66.66,0,0,1-.49.16,1,1,0,0,1-1-.65.83.83,0,0,1,.33-1.14q6.51-5.22,9.94-7.5L350.2,42.5c0-.22.93-.87,2.77-2a77.28,77.28,0,0,0,7.67-5.22,10.55,10.55,0,0,0,3.91-5.54c.11-.43.46-.59,1.06-.49s.84.38.73.82l-2.77,15.48a47.51,47.51,0,0,1,18.91-4.23Q391,41.36,395.28,45.76Zm-10.52,19.4q0-7-3.17-11.41t-10.36-4.41a31.26,31.26,0,0,0-8.47,1.15l-8.48,47.93a29,29,0,0,0,11.41,2.28q7.83,0,12.39-8.4t6.36-22.74A42.52,42.52,0,0,0,384.76,65.16Z"/><path class="cls-2" d="M509.64,92.55a1,1,0,0,1,.82.57.81.81,0,0,1-.17,1.06,60.66,60.66,0,0,1-9.78,9.62,14.74,14.74,0,0,1-8.8,3.09q-7.83,0-7.83-9.29a35.24,35.24,0,0,1,.66-6.68L489.43,65a49.73,49.73,0,0,0,.81-7.5q0-7.83-4.73-7.83c-2.6,0-5.38,1.77-8.31,5.3s-5.76,8.83-8.48,15.89a157.13,157.13,0,0,0-7,25.44l-1.3,7.17c-.22,1-1.09,1.77-2.61,2.36a18.5,18.5,0,0,1-6.52.9c-3.59,0-5.38-.44-5.38-1.3l.65-3.43q1.63-7.66,1.79-8.64l5.38-28.69a42.44,42.44,0,0,0,.82-7q0-4.08-1.39-6a4.42,4.42,0,0,0-3.83-2c-2.71,0-5.6,1.93-8.64,5.79s-5.92,9.45-8.64,16.79a159.06,159.06,0,0,0-6.85,25.84l-1,5.38q-.83,3.25-9.13,3.26c-3.59,0-5.38-.44-5.38-1.3l.65-3.43q1.62-7.66,1.79-8.64L418.84,57a17.43,17.43,0,0,0,.32-3.59q0-4.39-2.77-4.4-3.42,0-9.45,6.52a.67.67,0,0,1-.49.16,1,1,0,0,1-.82-.57.93.93,0,0,1,0-1.06,54.83,54.83,0,0,1,10.52-9.94,16.7,16.7,0,0,1,9.37-3.1q7.67,0,7.66,8.64a32.54,32.54,0,0,1-.49,5.38l-2.44,13.69q5.38-13.53,12.55-20.94T458,40.38q5.22,0,8,3.34t2.77,10a50.45,50.45,0,0,1-.81,7.82l-1.14,6.69q5.37-13.37,12.47-20.63T494,40.38q10.44,0,10.44,13.2a41,41,0,0,1-.82,8.32l-5.22,29a21.54,21.54,0,0,0-.49,3.91q0,3.75,2.61,3.75A6,6,0,0,0,504,97.19a57.29,57.29,0,0,0,5-4.32A1,1,0,0,1,509.64,92.55Z"/><path class="cls-2" d="M297.54,28q8.94-18,25-26.48.32-.15.63.24a.47.47,0,0,1,0,.72,68.35,68.35,0,0,0-16.9,27.76q-5.43,16.43-5.43,38.44t5.43,38.44a68.42,68.42,0,0,0,16.9,27.76c.22.1.22.32,0,.64s-.42.42-.63.32q-16.12-8.62-25-26.56t-8.93-40.6Q288.61,46,297.54,28Z"/><path class="cls-2" d="M546.29,109.37q-8.94,18-25,26.48-.32.15-.63-.24a.47.47,0,0,1,0-.72,68.55,68.55,0,0,0,16.91-27.76q5.41-16.42,5.42-38.44t-5.42-38.44A68.48,68.48,0,0,0,520.61,2.49c-.22-.11-.22-.32,0-.64s.42-.42.63-.32q16.11,8.63,25,26.56t8.93,40.6Q555.22,91.34,546.29,109.37Z"/></g></g></g></svg>